<svg width="631" height="64" viewBox="0 0 631 64" fill="none" xmlns="http://www.w3.org/2000/svg">
<g filter="url(#filter0_d_59_1291)">
<path d="M56.6819 8.10773C59.454 3.96409 65.546 3.96409 68.3181 8.10774L86.8231 35.7687C89.9346 40.4198 86.6009 46.6609 81.005 46.6609H43.995C38.3991 46.6609 35.0654 40.4198 38.1769 35.7687L56.6819 8.10773Z" fill="#FDF5AB"/>
<path d="M86.6819 8.10773C89.454 3.96409 95.546 3.96409 98.3181 8.10774L116.823 35.7687C119.935 40.4198 116.601 46.6609 111.005 46.6609H73.995C68.3991 46.6609 65.0654 40.4198 68.1769 35.7687L86.6819 8.10773Z" fill="#FDF5AB"/>
<path d="M115.682 8.10773C118.454 3.96409 124.546 3.96409 127.318 8.10774L145.823 35.7687C148.935 40.4198 145.601 46.6609 140.005 46.6609H102.995C97.3991 46.6609 94.0654 40.4198 97.1769 35.7687L115.682 8.10773Z" fill="#FDF5AB"/>
<path d="M175.682 8.10773C178.454 3.96409 184.546 3.96409 187.318 8.10774L205.823 35.7687C208.935 40.4198 205.601 46.6609 200.005 46.6609H162.995C157.399 46.6609 154.065 40.4198 157.177 35.7687L175.682 8.10773Z" fill="#FDF5AB"/>
<path d="M235.682 8.10773C238.454 3.96409 244.546 3.96409 247.318 8.10774L265.823 35.7687C268.935 40.4198 265.601 46.6609 260.005 46.6609H222.995C217.399 46.6609 214.065 40.4198 217.177 35.7687L235.682 8.10773Z" fill="#FDF5AB"/>
<path d="M205.682 8.10773C208.454 3.96409 214.546 3.96409 217.318 8.10774L235.823 35.7687C238.935 40.4198 235.601 46.6609 230.005 46.6609H192.995C187.399 46.6609 184.065 40.4198 187.177 35.7687L205.682 8.10773Z" fill="#FDF5AB"/>
<path d="M145.682 8.10773C148.454 3.96409 154.546 3.96409 157.318 8.10774L175.823 35.7687C178.935 40.4198 175.601 46.6609 170.005 46.6609H132.995C127.399 46.6609 124.065 40.4198 127.177 35.7687L145.682 8.10773Z" fill="#FDF5AB"/>
<path d="M20.3074 15.1519C23.316 10.6547 24.8203 8.40606 26.6963 7.58602C28.4838 6.80466 30.5162 6.80466 32.3037 7.58602C34.1797 8.40606 35.684 10.6547 38.6926 15.1519L49.5967 31.4512C53.2548 36.9193 55.0839 39.6533 55.0002 41.9192C54.9207 44.072 53.8544 46.0683 52.1093 47.3315C50.2725 48.6609 46.983 48.6609 40.4041 48.6609H18.5959C12.017 48.6609 8.72755 48.6609 6.89073 47.3315C5.1456 46.0683 4.07928 44.072 3.99979 41.9192C3.91612 39.6533 5.74518 36.9193 9.4033 31.4512L20.3074 15.1519Z" fill="#FDF5AB"/>
<path d="M299.682 8.10773C302.454 3.96409 308.546 3.96409 311.318 8.10774L329.823 35.7687C332.935 40.4198 329.601 46.6609 324.005 46.6609H286.995C281.399 46.6609 278.065 40.4198 281.177 35.7687L299.682 8.10773Z" fill="#FDF5AB"/>
<path d="M329.682 8.10773C332.454 3.96409 338.546 3.96409 341.318 8.10774L359.823 35.7687C362.935 40.4198 359.601 46.6609 354.005 46.6609H316.995C311.399 46.6609 308.065 40.4198 311.177 35.7687L329.682 8.10773Z" fill="#FDF5AB"/>
<path d="M358.682 8.10773C361.454 3.96409 367.546 3.96409 370.318 8.10774L388.823 35.7687C391.935 40.4198 388.601 46.6609 383.005 46.6609H345.995C340.399 46.6609 337.065 40.4198 340.177 35.7687L358.682 8.10773Z" fill="#FDF5AB"/>
<path d="M418.682 8.10773C421.454 3.96409 427.546 3.96409 430.318 8.10774L448.823 35.7687C451.935 40.4198 448.601 46.6609 443.005 46.6609H405.995C400.399 46.6609 397.065 40.4198 400.177 35.7687L418.682 8.10773Z" fill="#FDF5AB"/>
<path d="M478.682 8.10773C481.454 3.96409 487.546 3.96409 490.318 8.10774L508.823 35.7687C511.935 40.4198 508.601 46.6609 503.005 46.6609H465.995C460.399 46.6609 457.065 40.4198 460.177 35.7687L478.682 8.10773Z" fill="#FDF5AB"/>
<path d="M448.682 8.10773C451.454 3.96409 457.546 3.96409 460.318 8.10774L478.823 35.7687C481.935 40.4198 478.601 46.6609 473.005 46.6609H435.995C430.399 46.6609 427.065 40.4198 430.177 35.7687L448.682 8.10773Z" fill="#FDF5AB"/>
<path d="M388.682 8.10773C391.454 3.96409 397.546 3.96409 400.318 8.10774L418.823 35.7687C421.935 40.4198 418.601 46.6609 413.005 46.6609H375.995C370.399 46.6609 367.065 40.4198 370.177 35.7687L388.682 8.10773Z" fill="#FDF5AB"/>
<path d="M536.682 8.10773C539.454 3.96409 545.546 3.96409 548.318 8.10774L566.823 35.7687C569.935 40.4198 566.601 46.6609 561.005 46.6609H523.995C518.399 46.6609 515.065 40.4198 518.177 35.7687L536.682 8.10773Z" fill="#FDF5AB"/>
<path d="M595.682 11.1077C598.454 6.96409 604.546 6.96409 607.318 11.1077L625.823 38.7687C628.935 43.4198 625.601 49.6609 620.005 49.6609H582.995C577.399 49.6609 574.065 43.4198 577.177 38.7687L595.682 11.1077Z" fill="#FDF5AB"/>
<path d="M566.682 8.10773C569.454 3.96409 575.546 3.96409 578.318 8.10774L596.823 35.7687C599.935 40.4198 596.601 46.6609 591.005 46.6609H553.995C548.399 46.6609 545.065 40.4198 548.177 35.7687L566.682 8.10773Z" fill="#FDF5AB"/>
<path d="M506.682 8.10773C509.454 3.96409 515.546 3.96409 518.318 8.10774L536.823 35.7687C539.935 40.4198 536.601 46.6609 531.005 46.6609H493.995C488.399 46.6609 485.065 40.4198 488.177 35.7687L506.682 8.10773Z" fill="#FDF5AB"/>
<path d="M262.307 13.1519C265.316 8.65466 266.82 6.40606 268.696 5.58602C270.484 4.80466 272.516 4.80466 274.304 5.58602C276.18 6.40606 277.684 8.65466 280.693 13.1519L291.597 29.4512C295.255 34.9193 297.084 37.6533 297 39.9192C296.921 42.072 295.854 44.0683 294.109 45.3315C292.272 46.6609 288.983 46.6609 282.404 46.6609H260.596C254.017 46.6609 250.728 46.6609 248.891 45.3315C247.146 44.0683 246.079 42.072 246 39.9192C245.916 37.6533 247.745 34.9193 251.403 29.4512L262.307 13.1519Z" fill="#FDF5AB"/>
<path d="M3 44.4109C3 41.0972 5.68629 38.4109 9 38.4109H622C625.314 38.4109 628 41.0972 628 44.4109V62.4109H3V44.4109Z" fill="#FDF5AB"/>
</g>
<defs>
<filter id="filter0_d_59_1291" x="0" y="0" width="631" height="63.4109" filterUnits="userSpaceOnUse" color-interpolation-filters="sRGB">
<feFlood flood-opacity="0" result="BackgroundImageFix"/>
<feColorMatrix in="SourceAlpha" type="matrix" values="0 0 0 0 0 0 0 0 0 0 0 0 0 0 0 0 0 0 127 0" result="hardAlpha"/>
<feOffset dy="-2"/>
<feGaussianBlur stdDeviation="1.5"/>
<feComposite in2="hardAlpha" operator="out"/>
<feColorMatrix type="matrix" values="0 0 0 0 0 0 0 0 0 0 0 0 0 0 0 0 0 0 0.05 0"/>
<feBlend mode="normal" in2="BackgroundImageFix" result="effect1_dropShadow_59_1291"/>
<feBlend mode="normal" in="SourceGraphic" in2="effect1_dropShadow_59_1291" result="shape"/>
</filter>
</defs>
</svg>
